<svg id="Guide" height="300" viewBox="0 0 512 512" width="300" xmlns="http://www.w3.org/2000/svg"><g fill="#d4e1f4"><path d="m196.129 119.911a156.767 156.767 0 0 1 69.938-21.429q-4.994-.316-10.067-.322a156.863 156.863 0 0 0 -79.871 21.751l35.363 113.715a50.132 50.132 0 0 1 14.581-17.426z"/><path d="m118.471 246.236a157.5 157.5 0 0 1 51.181-106.742l-3.995-12.846a157.844 157.844 0 0 0 -67.186 119.588l109.458 22.877c-.391-1.433-.7-2.9-.96-4.381z"/><path d="m118.315 262.643-20.124-4.206a157.267 157.267 0 0 0 43.174 105.947l12.884-8.051a157.089 157.089 0 0 1 -35.934-93.69z"/><path d="m170.19 373.02 107.6-67.232c.687-.024 1.364-.082 2.044-.134l.49-6.185a49.481 49.481 0 0 1 -22.534 6.319l-107.6 67.232a157.219 157.219 0 0 0 105.81 40.82c3.342 0 6.656-.119 9.947-.327a157.24 157.24 0 0 1 -95.757-40.493z"/></g><path d="m126.123 10h-90.123a26.029 26.029 0 0 0 -26 26v83.186a6 6 0 0 0 12 0v-83.186a14.015 14.015 0 0 1 14-14h90.123a6 6 0 0 0 0-12z" fill="#0635c9"/><path d="m496 382.025a6 6 0 0 0 -6 6v87.975a14.015 14.015 0 0 1 -14 14h-83.558a6 6 0 0 0 0 12h83.558a26.029 26.029 0 0 0 26-26v-87.975a6 6 0 0 0 -6-6z" fill="#0635c9"/><path d="m476 10h-81.878a6 6 0 0 0 0 12h81.878a14.015 14.015 0 0 1 14 14v78.985a6 6 0 1 0 12 0v-78.985a26.029 26.029 0 0 0 -26-26z" fill="#0635c9"/><path d="m113.521 490h-77.521a14.015 14.015 0 0 1 -14-14v-77.053a6 6 0 0 0 -12 0v77.053a26.029 26.029 0 0 0 26 26h77.521a6 6 0 0 0 0-12z" fill="#0635c9"/><path d="m256 86.16c-93.65 0-169.84 76.19-169.84 169.84s76.19 169.84 169.84 169.84 169.84-76.19 169.84-169.84-76.19-169.84-169.84-169.84zm0 12a157.209 157.209 0 0 1 49.4 7.926l-62.816 101.929a50.043 50.043 0 0 0 -31.092 25.611l-35.363-113.715a156.863 156.863 0 0 1 79.871-21.751zm-90.343 28.488 40.534 130.344a49.7 49.7 0 0 0 1.738 12.121l-109.458-22.877a157.844 157.844 0 0 1 67.186-119.588zm-67.466 131.789 115.709 24.184a50.079 50.079 0 0 0 25.651 20.412l-98.19 61.351a157.267 157.267 0 0 1 -43.17-105.947zm173.138 154.656c-5.045.489-10.157.747-15.329.747a157.219 157.219 0 0 1 -105.81-40.82l107.6-67.232a49.481 49.481 0 0 0 22.534-6.319zm-15.329-119.259a37.834 37.834 0 1 1 37.834-37.834 37.878 37.878 0 0 1 -37.834 37.834zm27.5 117.6 9.686-122.307a49.771 49.771 0 0 0 11.035-20.538l80.822 78.2a158.106 158.106 0 0 1 -101.543 64.648zm130.34-155.434a156.869 156.869 0 0 1 -22.14 80.533l-85.935-83.143a49.614 49.614 0 0 0 -12.393-30.3l113.9-12.159a157.351 157.351 0 0 1 6.568 45.069zm-133.689-43.571a49.484 49.484 0 0 0 -22.359-6.218l59.064-95.842a158.725 158.725 0 0 1 86.438 88.914z" fill="#1ae5be"/></svg>